<svg width="318" height="294" viewBox="0 0 318 294" fill="none" xmlns="http://www.w3.org/2000/svg">
<g style="mix-blend-mode:hard-light" filter="url(#filter0_ddi_579_2993)">
<path d="M12.8229 21.3735V21.3742C12.8229 68.9889 27.3642 106.244 43.8335 133.742C47.3343 139.588 54.151 145.547 63.7685 151.256C73.2826 156.903 85.0356 162.012 97.7615 166.379C123.244 175.123 151.944 180.663 172.974 181.771L178.49 182.062V187.586V241.305C178.49 241.305 178.49 241.305 178.49 241.305C178.49 242.42 178.779 243.46 179.257 244.29C179.732 245.116 180.335 245.636 180.893 245.91C181.436 246.176 181.974 246.232 182.48 246.127C182.997 246.02 183.594 245.718 184.148 245.111L184.149 245.111L286.814 132.807C286.815 132.806 286.815 132.806 286.816 132.805C287.2 132.384 287.545 131.835 287.793 131.17C288.041 130.504 288.177 129.764 288.177 129C288.177 128.236 288.041 127.496 287.793 126.83C287.545 126.165 287.2 125.616 286.816 125.194C286.815 125.194 286.815 125.194 286.814 125.193L184.149 12.8893L184.148 12.8884C183.594 12.2821 182.997 11.9798 182.48 11.8726L183.663 6.17107L182.48 11.8726C181.974 11.7675 181.436 11.8244 180.893 12.0904C180.335 12.3639 179.732 12.8842 179.257 13.7103C178.779 14.5397 178.49 15.5797 178.49 16.6948C178.49 16.6949 178.49 16.6951 178.49 16.6953L178.49 70.0197V76.0477L172.466 75.8391C158.842 75.3673 149.989 73.3783 142.348 69.7362C136.7 67.0443 131.766 63.423 126.378 59.4681C124.801 58.3107 123.186 57.1247 121.501 55.9251C112.503 49.5147 108.852 40.9344 106.787 33.6248C106.152 31.3744 105.595 28.9422 105.116 26.8497C104.871 25.7761 104.646 24.792 104.441 23.9677C103.733 21.1219 103.136 19.537 102.522 18.636C102.512 18.6213 102.504 18.6115 102.478 18.5879C102.443 18.5566 102.356 18.4862 102.16 18.366C101.948 18.2356 101.689 18.0948 101.266 17.8733C101.219 17.8488 101.17 17.823 101.118 17.7959C100.88 17.6718 100.591 17.5211 100.284 17.3542C100.054 17.2737 99.8411 17.1981 99.6381 17.1259C99.0211 16.9067 98.4951 16.7198 97.8451 16.5285C96.9385 16.2617 96.3447 16.1698 95.9805 16.1663L14.7357 17.0673C14.3663 17.3399 13.999 17.7237 13.6782 18.2392C13.1498 19.0882 12.8228 20.1854 12.8229 21.3735Z" stroke="#FB37FF" stroke-opacity="0.2" stroke-width="11.6458"/>
</g>
<defs>
<filter id="filter0_ddi_579_2993" x="-16.2916" y="0.625027" width="333.583" height="292.583" filterUnits="userSpaceOnUse" color-interpolation-filters="sRGB">
<feFlood flood-opacity="0" result="BackgroundImageFix"/>
<feColorMatrix in="SourceAlpha" type="matrix" values="0 0 0 0 0 0 0 0 0 0 0 0 0 0 0 0 0 0 127 0" result="hardAlpha"/>
<feOffset dy="11.6458"/>
<feGaussianBlur stdDeviation="4.47914"/>
<feColorMatrix type="matrix" values="0 0 0 0 0.3 0 0 0 0 0 0 0 0 0 0.26 0 0 0 0.7 0"/>
<feBlend mode="multiply" in2="BackgroundImageFix" result="effect1_dropShadow_579_2993"/>
<feColorMatrix in="SourceAlpha" type="matrix" values="0 0 0 0 0 0 0 0 0 0 0 0 0 0 0 0 0 0 127 0" result="hardAlpha"/>
<feOffset dy="17.9166"/>
<feGaussianBlur stdDeviation="11.6458"/>
<feColorMatrix type="matrix" values="0 0 0 0 0.6 0 0 0 0 0 0 0 0 0 0.6 0 0 0 1 0"/>
<feBlend mode="color-dodge" in2="effect1_dropShadow_579_2993" result="effect2_dropShadow_579_2993"/>
<feBlend mode="normal" in="SourceGraphic" in2="effect2_dropShadow_579_2993" result="shape"/>
<feColorMatrix in="SourceAlpha" type="matrix" values="0 0 0 0 0 0 0 0 0 0 0 0 0 0 0 0 0 0 127 0" result="hardAlpha"/>
<feOffset dx="-1.16458" dy="2.32916"/>
<feGaussianBlur stdDeviation="0.582289"/>
<feComposite in2="hardAlpha" operator="arithmetic" k2="-1" k3="1"/>
<feColorMatrix type="matrix" values="0 0 0 0 1 0 0 0 0 1 0 0 0 0 1 0 0 0 0.5 0"/>
<feBlend mode="normal" in2="shape" result="effect3_innerShadow_579_2993"/>
</filter>
</defs>
</svg>
